<svg xmlns="http://www.w3.org/2000/svg" xmlns:xlink="http://www.w3.org/1999/xlink" width="100" zoomAndPan="magnify" viewBox="0 0 75 30.000001" height="40" preserveAspectRatio="xMidYMid meet" version="1.0"><defs><g/><clipPath id="f4c09f6d1e"><path d="M 11 12 L 15 12 L 15 17 L 11 17 Z M 11 12 " clip-rule="nonzero"/></clipPath><clipPath id="d93e6fe4b2"><path d="M 9.472656 6.507812 L 14.257812 16.289062 L 5.785156 20.433594 L 1 10.65625 Z M 9.472656 6.507812 " clip-rule="nonzero"/></clipPath><clipPath id="897f94c7a2"><path d="M 12.011719 -1.179688 L 19.347656 13.8125 L 3.050781 21.789062 L -4.285156 6.792969 Z M 12.011719 -1.179688 " clip-rule="nonzero"/></clipPath><clipPath id="fe6986dba5"><path d="M 10 12 L 15 12 L 15 16 L 10 16 Z M 10 12 " clip-rule="nonzero"/></clipPath><clipPath id="c496d5fe19"><path d="M 9.472656 6.507812 L 14.257812 16.289062 L 5.785156 20.433594 L 1 10.65625 Z M 9.472656 6.507812 " clip-rule="nonzero"/></clipPath><clipPath id="6df6243c61"><path d="M 12.011719 -1.179688 L 19.347656 13.8125 L 3.050781 21.789062 L -4.285156 6.792969 Z M 12.011719 -1.179688 " clip-rule="nonzero"/></clipPath><clipPath id="05717a5c75"><path d="M 11 13 L 15 13 L 15 17 L 11 17 Z M 11 13 " clip-rule="nonzero"/></clipPath><clipPath id="32b5d53099"><path d="M 9.472656 6.507812 L 14.257812 16.289062 L 5.785156 20.433594 L 1 10.65625 Z M 9.472656 6.507812 " clip-rule="nonzero"/></clipPath><clipPath id="8949198d39"><path d="M 12.011719 -1.179688 L 19.347656 13.8125 L 3.050781 21.789062 L -4.285156 6.792969 Z M 12.011719 -1.179688 " clip-rule="nonzero"/></clipPath><clipPath id="be4ff4042d"><path d="M 4 13 L 12 13 L 12 18 L 4 18 Z M 4 13 " clip-rule="nonzero"/></clipPath><clipPath id="81ca38613a"><path d="M 9.472656 6.507812 L 14.257812 16.289062 L 5.785156 20.433594 L 1 10.65625 Z M 9.472656 6.507812 " clip-rule="nonzero"/></clipPath><clipPath id="f276549622"><path d="M 12.011719 -1.179688 L 19.347656 13.8125 L 3.050781 21.789062 L -4.285156 6.792969 Z M 12.011719 -1.179688 " clip-rule="nonzero"/></clipPath><clipPath id="c173c5e5c3"><path d="M 5 13 L 12 13 L 12 17 L 5 17 Z M 5 13 " clip-rule="nonzero"/></clipPath><clipPath id="f95f3f70e1"><path d="M 9.472656 6.507812 L 14.257812 16.289062 L 5.785156 20.433594 L 1 10.65625 Z M 9.472656 6.507812 " clip-rule="nonzero"/></clipPath><clipPath id="f15a9e9a6a"><path d="M 12.011719 -1.179688 L 19.347656 13.8125 L 3.050781 21.789062 L -4.285156 6.792969 Z M 12.011719 -1.179688 " clip-rule="nonzero"/></clipPath><clipPath id="73eedb4a42"><path d="M 4 13 L 12 13 L 12 18 L 4 18 Z M 4 13 " clip-rule="nonzero"/></clipPath><clipPath id="22b255e901"><path d="M 9.472656 6.507812 L 14.257812 16.289062 L 5.785156 20.433594 L 1 10.65625 Z M 9.472656 6.507812 " clip-rule="nonzero"/></clipPath><clipPath id="da1205e0ed"><path d="M 12.011719 -1.179688 L 19.347656 13.8125 L 3.050781 21.789062 L -4.285156 6.792969 Z M 12.011719 -1.179688 " clip-rule="nonzero"/></clipPath><clipPath id="510138c13c"><path d="M 4 10 L 10 10 L 10 14 L 4 14 Z M 4 10 " clip-rule="nonzero"/></clipPath><clipPath id="6a76214c5b"><path d="M 9.472656 6.507812 L 14.257812 16.289062 L 5.785156 20.433594 L 1 10.65625 Z M 9.472656 6.507812 " clip-rule="nonzero"/></clipPath><clipPath id="fd4f6f6473"><path d="M 12.011719 -1.179688 L 19.347656 13.8125 L 3.050781 21.789062 L -4.285156 6.792969 Z M 12.011719 -1.179688 " clip-rule="nonzero"/></clipPath><clipPath id="49fff737fd"><path d="M 4 9 L 11 9 L 11 14 L 4 14 Z M 4 9 " clip-rule="nonzero"/></clipPath><clipPath id="15a909a567"><path d="M 9.472656 6.507812 L 14.257812 16.289062 L 5.785156 20.433594 L 1 10.65625 Z M 9.472656 6.507812 " clip-rule="nonzero"/></clipPath><clipPath id="64c704e503"><path d="M 12.011719 -1.179688 L 19.347656 13.8125 L 3.050781 21.789062 L -4.285156 6.792969 Z M 12.011719 -1.179688 " clip-rule="nonzero"/></clipPath><clipPath id="94354de9f5"><path d="M 2 11 L 10 11 L 10 14 L 2 14 Z M 2 11 " clip-rule="nonzero"/></clipPath><clipPath id="ccd71ed6af"><path d="M 9.472656 6.507812 L 14.257812 16.289062 L 5.785156 20.433594 L 1 10.65625 Z M 9.472656 6.507812 " clip-rule="nonzero"/></clipPath><clipPath id="c56558065b"><path d="M 12.011719 -1.179688 L 19.347656 13.8125 L 3.050781 21.789062 L -4.285156 6.792969 Z M 12.011719 -1.179688 " clip-rule="nonzero"/></clipPath><clipPath id="c8e923d5fc"><path d="M 2 10 L 10 10 L 10 14 L 2 14 Z M 2 10 " clip-rule="nonzero"/></clipPath><clipPath id="2494e702b0"><path d="M 9.472656 6.507812 L 14.257812 16.289062 L 5.785156 20.433594 L 1 10.65625 Z M 9.472656 6.507812 " clip-rule="nonzero"/></clipPath><clipPath id="59c19ee110"><path d="M 12.011719 -1.179688 L 19.347656 13.8125 L 3.050781 21.789062 L -4.285156 6.792969 Z M 12.011719 -1.179688 " clip-rule="nonzero"/></clipPath><clipPath id="c6d174c091"><path d="M 2 11 L 11 11 L 11 15 L 2 15 Z M 2 11 " clip-rule="nonzero"/></clipPath><clipPath id="f135a57782"><path d="M 9.472656 6.507812 L 14.257812 16.289062 L 5.785156 20.433594 L 1 10.65625 Z M 9.472656 6.507812 " clip-rule="nonzero"/></clipPath><clipPath id="81c43050cd"><path d="M 12.011719 -1.179688 L 19.347656 13.8125 L 3.050781 21.789062 L -4.285156 6.792969 Z M 12.011719 -1.179688 " clip-rule="nonzero"/></clipPath><clipPath id="06ef1d4741"><path d="M 1.210938 11 L 11 11 L 11 15 L 1.210938 15 Z M 1.210938 11 " clip-rule="nonzero"/></clipPath><clipPath id="ea8e1a6a7b"><path d="M 9.472656 6.507812 L 14.257812 16.289062 L 5.785156 20.433594 L 1 10.65625 Z M 9.472656 6.507812 " clip-rule="nonzero"/></clipPath><clipPath id="193d5e025e"><path d="M 12.011719 -1.179688 L 19.347656 13.8125 L 3.050781 21.789062 L -4.285156 6.792969 Z M 12.011719 -1.179688 " clip-rule="nonzero"/></clipPath><clipPath id="742adcedea"><path d="M 1.210938 6 L 3 6 L 3 12 L 1.210938 12 Z M 1.210938 6 " clip-rule="nonzero"/></clipPath><clipPath id="582c6cf645"><path d="M 9.472656 6.507812 L 14.257812 16.289062 L 5.785156 20.433594 L 1 10.65625 Z M 9.472656 6.507812 " clip-rule="nonzero"/></clipPath><clipPath id="4d0e624838"><path d="M 12.011719 -1.179688 L 19.347656 13.8125 L 3.050781 21.789062 L -4.285156 6.792969 Z M 12.011719 -1.179688 " clip-rule="nonzero"/></clipPath><clipPath id="2e1583932e"><path d="M 6.726562 21.199219 L 63.339844 21.199219 L 63.339844 24.101562 L 6.726562 24.101562 Z M 6.726562 21.199219 " clip-rule="nonzero"/></clipPath></defs><g fill="#312e81" fill-opacity="1"><g transform="translate(7.912045, 17.910744)"><g><path d="M 3.5625 0.046875 C 2.957031 0.046875 2.5 -0.113281 2.1875 -0.4375 C 1.882812 -0.769531 1.734375 -1.21875 1.734375 -1.78125 C 1.734375 -2.09375 1.78125 -2.472656 1.875 -2.921875 L 2.546875 -5.984375 C 2.554688 -6.046875 2.585938 -6.203125 2.640625 -6.453125 C 2.691406 -6.710938 2.71875 -6.992188 2.71875 -7.296875 C 2.71875 -7.472656 2.679688 -7.601562 2.609375 -7.6875 C 2.546875 -7.769531 2.457031 -7.8125 2.34375 -7.8125 C 2.132812 -7.8125 1.882812 -7.707031 1.59375 -7.5 C 1.3125 -7.300781 1.015625 -6.992188 0.703125 -6.578125 C 0.597656 -6.429688 0.484375 -6.359375 0.359375 -6.359375 C 0.265625 -6.359375 0.175781 -6.40625 0.09375 -6.5 C 0.0195312 -6.601562 -0.015625 -6.71875 -0.015625 -6.84375 C -0.015625 -7.0625 0.0859375 -7.3125 0.296875 -7.59375 C 1.015625 -8.59375 1.863281 -9.09375 2.84375 -9.09375 C 3.28125 -9.09375 3.625 -8.957031 3.875 -8.6875 C 4.125 -8.425781 4.25 -8.039062 4.25 -7.53125 C 4.25 -7.164062 4.222656 -6.828125 4.171875 -6.515625 C 4.117188 -6.210938 4.03125 -5.796875 3.90625 -5.265625 L 3.46875 -3.296875 C 3.457031 -3.234375 3.429688 -3.117188 3.390625 -2.953125 C 3.359375 -2.796875 3.332031 -2.640625 3.3125 -2.484375 C 3.289062 -2.335938 3.28125 -2.195312 3.28125 -2.0625 C 3.28125 -1.832031 3.34375 -1.648438 3.46875 -1.515625 C 3.601562 -1.378906 3.785156 -1.3125 4.015625 -1.3125 C 4.441406 -1.3125 4.875 -1.539062 5.3125 -2 C 5.757812 -2.457031 6.171875 -3.191406 6.546875 -4.203125 C 6.921875 -5.222656 7.210938 -6.523438 7.421875 -8.109375 C 7.472656 -8.472656 7.546875 -8.726562 7.640625 -8.875 C 7.734375 -9.019531 7.921875 -9.09375 8.203125 -9.09375 C 8.453125 -9.09375 8.632812 -9.015625 8.75 -8.859375 C 8.875 -8.710938 8.9375 -8.472656 8.9375 -8.140625 C 8.9375 -7.941406 8.910156 -7.6875 8.859375 -7.375 C 8.816406 -7.0625 8.75 -6.625 8.65625 -6.0625 C 8.46875 -4.96875 8.316406 -3.960938 8.203125 -3.046875 C 8.140625 -2.628906 8.109375 -2.320312 8.109375 -2.125 C 8.109375 -1.832031 8.175781 -1.609375 8.3125 -1.453125 C 8.445312 -1.296875 8.625 -1.21875 8.84375 -1.21875 C 9.082031 -1.21875 9.3125 -1.296875 9.53125 -1.453125 C 9.757812 -1.609375 10.023438 -1.867188 10.328125 -2.234375 C 10.421875 -2.335938 10.519531 -2.390625 10.625 -2.390625 C 10.71875 -2.390625 10.789062 -2.347656 10.84375 -2.265625 C 10.894531 -2.179688 10.921875 -2.0625 10.921875 -1.90625 C 10.921875 -1.625 10.851562 -1.40625 10.71875 -1.25 C 10.34375 -0.789062 9.972656 -0.457031 9.609375 -0.25 C 9.242188 -0.0507812 8.863281 0.046875 8.46875 0.046875 C 7.875 0.046875 7.421875 -0.101562 7.109375 -0.40625 C 6.796875 -0.707031 6.640625 -1.101562 6.640625 -1.59375 C 6.640625 -1.863281 6.695312 -2.390625 6.8125 -3.171875 C 6.445312 -2.117188 5.988281 -1.316406 5.4375 -0.765625 C 4.894531 -0.222656 4.269531 0.046875 3.5625 0.046875 Z M 3.5625 0.046875 "/></g></g></g><g fill="#312e81" fill-opacity="1"><g transform="translate(17.450238, 17.910744)"><g><path d="M 1.28125 0.046875 C 1.007812 0.046875 0.816406 -0.09375 0.703125 -0.375 C 0.585938 -0.65625 0.53125 -1.113281 0.53125 -1.75 C 0.53125 -2.675781 0.664062 -3.554688 0.9375 -4.390625 C 1 -4.597656 1.101562 -4.75 1.25 -4.84375 C 1.394531 -4.945312 1.597656 -5 1.859375 -5 C 2.003906 -5 2.101562 -4.976562 2.15625 -4.9375 C 2.21875 -4.90625 2.25 -4.835938 2.25 -4.734375 C 2.25 -4.617188 2.195312 -4.363281 2.09375 -3.96875 C 2.019531 -3.675781 1.960938 -3.425781 1.921875 -3.21875 C 1.878906 -3.007812 1.84375 -2.75 1.8125 -2.4375 C 2 -2.988281 2.226562 -3.457031 2.5 -3.84375 C 2.769531 -4.226562 3.046875 -4.515625 3.328125 -4.703125 C 3.609375 -4.898438 3.875 -5 4.125 -5 C 4.375 -5 4.550781 -4.941406 4.65625 -4.828125 C 4.757812 -4.710938 4.8125 -4.535156 4.8125 -4.296875 C 4.8125 -4.066406 4.742188 -3.65625 4.609375 -3.0625 C 4.546875 -2.800781 4.503906 -2.601562 4.484375 -2.46875 C 4.847656 -3.351562 5.242188 -3.992188 5.671875 -4.390625 C 6.109375 -4.796875 6.519531 -5 6.90625 -5 C 7.363281 -5 7.59375 -4.765625 7.59375 -4.296875 C 7.59375 -4.015625 7.515625 -3.507812 7.359375 -2.78125 C 7.222656 -2.164062 7.15625 -1.753906 7.15625 -1.546875 C 7.15625 -1.265625 7.257812 -1.125 7.46875 -1.125 C 7.613281 -1.125 7.785156 -1.210938 7.984375 -1.390625 C 8.179688 -1.566406 8.441406 -1.847656 8.765625 -2.234375 C 8.847656 -2.335938 8.945312 -2.390625 9.0625 -2.390625 C 9.15625 -2.390625 9.226562 -2.347656 9.28125 -2.265625 C 9.332031 -2.179688 9.359375 -2.0625 9.359375 -1.90625 C 9.359375 -1.625 9.289062 -1.40625 9.15625 -1.25 C 8.84375 -0.863281 8.507812 -0.550781 8.15625 -0.3125 C 7.800781 -0.0703125 7.398438 0.046875 6.953125 0.046875 C 6.585938 0.046875 6.3125 -0.0546875 6.125 -0.265625 C 5.945312 -0.472656 5.859375 -0.773438 5.859375 -1.171875 C 5.859375 -1.378906 5.90625 -1.738281 6 -2.25 C 6.09375 -2.695312 6.140625 -3.007812 6.140625 -3.1875 C 6.140625 -3.300781 6.101562 -3.359375 6.03125 -3.359375 C 5.9375 -3.359375 5.800781 -3.238281 5.625 -3 C 5.457031 -2.757812 5.285156 -2.441406 5.109375 -2.046875 C 4.941406 -1.648438 4.800781 -1.234375 4.6875 -0.796875 C 4.613281 -0.460938 4.523438 -0.238281 4.421875 -0.125 C 4.316406 -0.0078125 4.148438 0.046875 3.921875 0.046875 C 3.679688 0.046875 3.503906 -0.0625 3.390625 -0.28125 C 3.273438 -0.507812 3.21875 -0.785156 3.21875 -1.109375 C 3.21875 -1.378906 3.253906 -1.769531 3.328125 -2.28125 C 3.378906 -2.738281 3.40625 -3.039062 3.40625 -3.1875 C 3.40625 -3.300781 3.367188 -3.359375 3.296875 -3.359375 C 3.179688 -3.359375 3.039062 -3.226562 2.875 -2.96875 C 2.71875 -2.707031 2.5625 -2.375 2.40625 -1.96875 C 2.25 -1.570312 2.125 -1.179688 2.03125 -0.796875 C 1.957031 -0.460938 1.867188 -0.238281 1.765625 -0.125 C 1.660156 -0.0078125 1.5 0.046875 1.28125 0.046875 Z M 1.28125 0.046875 "/></g></g></g><g fill="#312e81" fill-opacity="1"><g transform="translate(25.423743, 17.910744)"><g><path d="M 5.296875 -2.390625 C 5.390625 -2.390625 5.460938 -2.347656 5.515625 -2.265625 C 5.566406 -2.179688 5.59375 -2.0625 5.59375 -1.90625 C 5.59375 -1.625 5.523438 -1.40625 5.390625 -1.25 C 5.128906 -0.925781 4.753906 -0.628906 4.265625 -0.359375 C 3.785156 -0.0859375 3.269531 0.046875 2.71875 0.046875 C 1.96875 0.046875 1.382812 -0.15625 0.96875 -0.5625 C 0.5625 -0.96875 0.359375 -1.523438 0.359375 -2.234375 C 0.359375 -2.722656 0.457031 -3.179688 0.65625 -3.609375 C 0.863281 -4.035156 1.148438 -4.375 1.515625 -4.625 C 1.890625 -4.875 2.3125 -5 2.78125 -5 C 3.1875 -5 3.515625 -4.875 3.765625 -4.625 C 4.015625 -4.375 4.140625 -4.039062 4.140625 -3.625 C 4.140625 -3.132812 3.960938 -2.710938 3.609375 -2.359375 C 3.265625 -2.003906 2.671875 -1.722656 1.828125 -1.515625 C 2.003906 -1.179688 2.34375 -1.015625 2.84375 -1.015625 C 3.164062 -1.015625 3.53125 -1.125 3.9375 -1.34375 C 4.351562 -1.570312 4.707031 -1.867188 5 -2.234375 C 5.09375 -2.335938 5.191406 -2.390625 5.296875 -2.390625 Z M 2.59375 -3.9375 C 2.332031 -3.9375 2.109375 -3.78125 1.921875 -3.46875 C 1.742188 -3.164062 1.65625 -2.800781 1.65625 -2.375 L 1.65625 -2.34375 C 2.070312 -2.445312 2.398438 -2.597656 2.640625 -2.796875 C 2.890625 -2.992188 3.015625 -3.226562 3.015625 -3.5 C 3.015625 -3.632812 2.972656 -3.738281 2.890625 -3.8125 C 2.816406 -3.894531 2.71875 -3.9375 2.59375 -3.9375 Z M 2.59375 -3.9375 "/></g></g></g><g fill="#312e81" fill-opacity="1"><g transform="translate(29.635549, 17.910744)"><g><path d="M 1.28125 0.046875 C 1.007812 0.046875 0.816406 -0.09375 0.703125 -0.375 C 0.585938 -0.65625 0.53125 -1.113281 0.53125 -1.75 C 0.53125 -2.675781 0.664062 -3.554688 0.9375 -4.390625 C 1 -4.597656 1.101562 -4.75 1.25 -4.84375 C 1.394531 -4.945312 1.597656 -5 1.859375 -5 C 2.003906 -5 2.101562 -4.976562 2.15625 -4.9375 C 2.21875 -4.90625 2.25 -4.835938 2.25 -4.734375 C 2.25 -4.617188 2.195312 -4.363281 2.09375 -3.96875 C 2.019531 -3.675781 1.960938 -3.421875 1.921875 -3.203125 C 1.878906 -2.992188 1.84375 -2.734375 1.8125 -2.421875 C 2.050781 -3.035156 2.316406 -3.535156 2.609375 -3.921875 C 2.898438 -4.304688 3.1875 -4.582031 3.46875 -4.75 C 3.75 -4.914062 4.007812 -5 4.25 -5 C 4.707031 -5 4.9375 -4.765625 4.9375 -4.296875 C 4.9375 -4.203125 4.90625 -3.976562 4.84375 -3.625 C 4.789062 -3.332031 4.765625 -3.15625 4.765625 -3.09375 C 4.765625 -2.84375 4.851562 -2.71875 5.03125 -2.71875 C 5.226562 -2.71875 5.484375 -2.875 5.796875 -3.1875 C 5.890625 -3.28125 5.988281 -3.328125 6.09375 -3.328125 C 6.1875 -3.328125 6.257812 -3.285156 6.3125 -3.203125 C 6.363281 -3.117188 6.390625 -3.007812 6.390625 -2.875 C 6.390625 -2.601562 6.316406 -2.394531 6.171875 -2.25 C 5.972656 -2.039062 5.738281 -1.863281 5.46875 -1.71875 C 5.195312 -1.570312 4.914062 -1.5 4.625 -1.5 C 4.238281 -1.5 3.945312 -1.59375 3.75 -1.78125 C 3.5625 -1.976562 3.46875 -2.242188 3.46875 -2.578125 C 3.46875 -2.679688 3.476562 -2.785156 3.5 -2.890625 C 3.507812 -3.035156 3.515625 -3.132812 3.515625 -3.1875 C 3.515625 -3.300781 3.472656 -3.359375 3.390625 -3.359375 C 3.285156 -3.359375 3.144531 -3.238281 2.96875 -3 C 2.800781 -2.757812 2.628906 -2.441406 2.453125 -2.046875 C 2.285156 -1.648438 2.144531 -1.234375 2.03125 -0.796875 C 1.957031 -0.460938 1.867188 -0.238281 1.765625 -0.125 C 1.660156 -0.0078125 1.5 0.046875 1.28125 0.046875 Z M 1.28125 0.046875 "/></g></g></g><g fill="#312e81" fill-opacity="1"><g transform="translate(34.511817, 17.910744)"><g><path d="M 9.5 -8.890625 C 9.707031 -8.859375 9.847656 -8.796875 9.921875 -8.703125 C 9.992188 -8.609375 10.03125 -8.488281 10.03125 -8.34375 C 10.03125 -7.84375 9.765625 -7.613281 9.234375 -7.65625 L 8.859375 -7.6875 C 8.441406 -7.71875 8.023438 -7.742188 7.609375 -7.765625 C 7.191406 -7.785156 6.753906 -7.796875 6.296875 -7.796875 L 5.8125 -7.796875 C 5.726562 -6.742188 5.640625 -5.78125 5.546875 -4.90625 L 7.390625 -4.9375 C 7.648438 -4.9375 7.820312 -4.890625 7.90625 -4.796875 C 8 -4.703125 8.046875 -4.578125 8.046875 -4.421875 C 8.046875 -4.179688 7.972656 -3.988281 7.828125 -3.84375 C 7.691406 -3.707031 7.488281 -3.640625 7.21875 -3.640625 L 5.390625 -3.640625 L 5.328125 -3.1875 C 5.179688 -2.007812 4.863281 -1.171875 4.375 -0.671875 C 3.882812 -0.171875 3.207031 0.078125 2.34375 0.078125 C 1.863281 0.078125 1.414062 -0.0234375 1 -0.234375 C 0.59375 -0.441406 0.296875 -0.695312 0.109375 -1 C 0.0234375 -1.113281 -0.015625 -1.257812 -0.015625 -1.4375 C -0.015625 -1.601562 0.0234375 -1.75 0.109375 -1.875 C 0.191406 -2.007812 0.296875 -2.078125 0.421875 -2.078125 C 0.503906 -2.078125 0.585938 -2.046875 0.671875 -1.984375 C 0.753906 -1.929688 0.859375 -1.820312 0.984375 -1.65625 C 1.328125 -1.207031 1.753906 -0.984375 2.265625 -0.984375 C 2.671875 -0.984375 3.007812 -1.148438 3.28125 -1.484375 C 3.5625 -1.816406 3.738281 -2.34375 3.8125 -3.0625 L 3.875 -3.640625 L 3.359375 -3.640625 C 3.203125 -3.640625 3.0625 -3.6875 2.9375 -3.78125 C 2.820312 -3.875 2.765625 -4.007812 2.765625 -4.1875 C 2.765625 -4.40625 2.820312 -4.570312 2.9375 -4.6875 C 3.050781 -4.800781 3.21875 -4.859375 3.4375 -4.859375 C 3.632812 -4.859375 3.832031 -4.863281 4.03125 -4.875 C 4.113281 -5.664062 4.207031 -6.617188 4.3125 -7.734375 C 3.539062 -7.660156 2.992188 -7.535156 2.671875 -7.359375 C 2.359375 -7.179688 2.203125 -6.921875 2.203125 -6.578125 C 2.203125 -6.328125 2.273438 -6.09375 2.421875 -5.875 C 2.460938 -5.8125 2.484375 -5.75 2.484375 -5.6875 C 2.484375 -5.550781 2.410156 -5.4375 2.265625 -5.34375 C 2.128906 -5.25 1.972656 -5.203125 1.796875 -5.203125 C 1.597656 -5.203125 1.429688 -5.257812 1.296875 -5.375 C 1.210938 -5.445312 1.128906 -5.59375 1.046875 -5.8125 C 0.972656 -6.03125 0.9375 -6.273438 0.9375 -6.546875 C 0.9375 -7.429688 1.390625 -8.070312 2.296875 -8.46875 C 3.210938 -8.875 4.546875 -9.078125 6.296875 -9.078125 C 7.503906 -9.078125 8.570312 -9.015625 9.5 -8.890625 Z M 9.5 -8.890625 "/></g></g></g><g fill="#312e81" fill-opacity="1"><g transform="translate(42.142375, 17.910744)"><g><path d="M 1.828125 0.046875 C 1.390625 0.046875 1.035156 -0.109375 0.765625 -0.421875 C 0.503906 -0.742188 0.375 -1.164062 0.375 -1.6875 C 0.375 -2.257812 0.503906 -2.800781 0.765625 -3.3125 C 1.035156 -3.820312 1.390625 -4.234375 1.828125 -4.546875 C 2.265625 -4.859375 2.726562 -5.015625 3.21875 -5.015625 C 3.382812 -5.015625 3.492188 -4.984375 3.546875 -4.921875 C 3.597656 -4.859375 3.640625 -4.75 3.671875 -4.59375 C 3.828125 -4.625 3.984375 -4.640625 4.140625 -4.640625 C 4.492188 -4.640625 4.671875 -4.515625 4.671875 -4.265625 C 4.671875 -4.117188 4.617188 -3.757812 4.515625 -3.1875 C 4.347656 -2.375 4.265625 -1.804688 4.265625 -1.484375 C 4.265625 -1.367188 4.289062 -1.28125 4.34375 -1.21875 C 4.394531 -1.15625 4.46875 -1.125 4.5625 -1.125 C 4.695312 -1.125 4.859375 -1.210938 5.046875 -1.390625 C 5.242188 -1.566406 5.503906 -1.847656 5.828125 -2.234375 C 5.910156 -2.335938 6.007812 -2.390625 6.125 -2.390625 C 6.21875 -2.390625 6.289062 -2.347656 6.34375 -2.265625 C 6.394531 -2.179688 6.421875 -2.0625 6.421875 -1.90625 C 6.421875 -1.625 6.351562 -1.40625 6.21875 -1.25 C 5.925781 -0.882812 5.613281 -0.578125 5.28125 -0.328125 C 4.957031 -0.078125 4.640625 0.046875 4.328125 0.046875 C 4.097656 0.046875 3.882812 -0.03125 3.6875 -0.1875 C 3.488281 -0.34375 3.335938 -0.5625 3.234375 -0.84375 C 2.867188 -0.25 2.398438 0.046875 1.828125 0.046875 Z M 2.21875 -1.03125 C 2.375 -1.03125 2.523438 -1.125 2.671875 -1.3125 C 2.816406 -1.5 2.921875 -1.742188 2.984375 -2.046875 L 3.375 -4.015625 C 3.070312 -4.015625 2.796875 -3.90625 2.546875 -3.6875 C 2.296875 -3.46875 2.09375 -3.175781 1.9375 -2.8125 C 1.789062 -2.457031 1.71875 -2.082031 1.71875 -1.6875 C 1.71875 -1.457031 1.757812 -1.289062 1.84375 -1.1875 C 1.9375 -1.082031 2.0625 -1.03125 2.21875 -1.03125 Z M 2.21875 -1.03125 "/></g></g></g><g fill="#312e81" fill-opacity="1"><g transform="translate(47.179396, 17.910744)"><g><path d="M 1.28125 0.046875 C 1.007812 0.046875 0.816406 -0.09375 0.703125 -0.375 C 0.585938 -0.65625 0.53125 -1.113281 0.53125 -1.75 C 0.53125 -2.675781 0.664062 -3.554688 0.9375 -4.390625 C 1 -4.597656 1.101562 -4.75 1.25 -4.84375 C 1.394531 -4.945312 1.597656 -5 1.859375 -5 C 2.003906 -5 2.101562 -4.976562 2.15625 -4.9375 C 2.21875 -4.90625 2.25 -4.835938 2.25 -4.734375 C 2.25 -4.617188 2.195312 -4.363281 2.09375 -3.96875 C 2.019531 -3.675781 1.960938 -3.421875 1.921875 -3.203125 C 1.878906 -2.992188 1.84375 -2.734375 1.8125 -2.421875 C 2.050781 -3.035156 2.316406 -3.535156 2.609375 -3.921875 C 2.898438 -4.304688 3.1875 -4.582031 3.46875 -4.75 C 3.75 -4.914062 4.007812 -5 4.25 -5 C 4.707031 -5 4.9375 -4.765625 4.9375 -4.296875 C 4.9375 -4.203125 4.90625 -3.976562 4.84375 -3.625 C 4.789062 -3.332031 4.765625 -3.15625 4.765625 -3.09375 C 4.765625 -2.84375 4.851562 -2.71875 5.03125 -2.71875 C 5.226562 -2.71875 5.484375 -2.875 5.796875 -3.1875 C 5.890625 -3.28125 5.988281 -3.328125 6.09375 -3.328125 C 6.1875 -3.328125 6.257812 -3.285156 6.3125 -3.203125 C 6.363281 -3.117188 6.390625 -3.007812 6.390625 -2.875 C 6.390625 -2.601562 6.316406 -2.394531 6.171875 -2.25 C 5.972656 -2.039062 5.738281 -1.863281 5.46875 -1.71875 C 5.195312 -1.570312 4.914062 -1.5 4.625 -1.5 C 4.238281 -1.5 3.945312 -1.59375 3.75 -1.78125 C 3.5625 -1.976562 3.46875 -2.242188 3.46875 -2.578125 C 3.46875 -2.679688 3.476562 -2.785156 3.5 -2.890625 C 3.507812 -3.035156 3.515625 -3.132812 3.515625 -3.1875 C 3.515625 -3.300781 3.472656 -3.359375 3.390625 -3.359375 C 3.285156 -3.359375 3.144531 -3.238281 2.96875 -3 C 2.800781 -2.757812 2.628906 -2.441406 2.453125 -2.046875 C 2.285156 -1.648438 2.144531 -1.234375 2.03125 -0.796875 C 1.957031 -0.460938 1.867188 -0.238281 1.765625 -0.125 C 1.660156 -0.0078125 1.5 0.046875 1.28125 0.046875 Z M 1.28125 0.046875 "/></g></g></g><g fill="#312e81" fill-opacity="1"><g transform="translate(52.055665, 17.910744)"><g><path d="M 5.984375 -3.296875 C 6.078125 -3.296875 6.144531 -3.25 6.1875 -3.15625 C 6.238281 -3.0625 6.265625 -2.941406 6.265625 -2.796875 C 6.265625 -2.453125 6.160156 -2.25 5.953125 -2.1875 C 5.523438 -2.039062 5.054688 -1.953125 4.546875 -1.921875 C 4.410156 -1.328125 4.140625 -0.847656 3.734375 -0.484375 C 3.335938 -0.128906 2.882812 0.046875 2.375 0.046875 C 1.945312 0.046875 1.582031 -0.0507812 1.28125 -0.25 C 0.976562 -0.457031 0.75 -0.734375 0.59375 -1.078125 C 0.4375 -1.421875 0.359375 -1.796875 0.359375 -2.203125 C 0.359375 -2.742188 0.457031 -3.222656 0.65625 -3.640625 C 0.863281 -4.066406 1.148438 -4.398438 1.515625 -4.640625 C 1.878906 -4.878906 2.285156 -5 2.734375 -5 C 3.273438 -5 3.710938 -4.8125 4.046875 -4.4375 C 4.378906 -4.0625 4.570312 -3.601562 4.625 -3.0625 C 4.96875 -3.082031 5.367188 -3.148438 5.828125 -3.265625 C 5.890625 -3.285156 5.941406 -3.296875 5.984375 -3.296875 Z M 2.46875 -1.078125 C 2.695312 -1.078125 2.894531 -1.171875 3.0625 -1.359375 C 3.226562 -1.546875 3.335938 -1.816406 3.390625 -2.171875 C 3.171875 -2.316406 3.003906 -2.507812 2.890625 -2.75 C 2.773438 -3 2.71875 -3.257812 2.71875 -3.53125 C 2.71875 -3.644531 2.726562 -3.757812 2.75 -3.875 L 2.6875 -3.875 C 2.40625 -3.875 2.164062 -3.734375 1.96875 -3.453125 C 1.78125 -3.179688 1.6875 -2.796875 1.6875 -2.296875 C 1.6875 -1.898438 1.765625 -1.597656 1.921875 -1.390625 C 2.078125 -1.179688 2.257812 -1.078125 2.46875 -1.078125 Z M 2.46875 -1.078125 "/></g></g></g><g fill="#312e81" fill-opacity="1"><g transform="translate(56.889062, 17.910744)"><g><path d="M 5.984375 -3.296875 C 6.078125 -3.296875 6.144531 -3.25 6.1875 -3.15625 C 6.238281 -3.0625 6.265625 -2.941406 6.265625 -2.796875 C 6.265625 -2.453125 6.160156 -2.25 5.953125 -2.1875 C 5.523438 -2.039062 5.054688 -1.953125 4.546875 -1.921875 C 4.410156 -1.328125 4.140625 -0.847656 3.734375 -0.484375 C 3.335938 -0.128906 2.882812 0.046875 2.375 0.046875 C 1.945312 0.046875 1.582031 -0.0507812 1.28125 -0.25 C 0.976562 -0.457031 0.75 -0.734375 0.59375 -1.078125 C 0.4375 -1.421875 0.359375 -1.796875 0.359375 -2.203125 C 0.359375 -2.742188 0.457031 -3.222656 0.65625 -3.640625 C 0.863281 -4.066406 1.148438 -4.398438 1.515625 -4.640625 C 1.878906 -4.878906 2.285156 -5 2.734375 -5 C 3.273438 -5 3.710938 -4.8125 4.046875 -4.4375 C 4.378906 -4.0625 4.570312 -3.601562 4.625 -3.0625 C 4.96875 -3.082031 5.367188 -3.148438 5.828125 -3.265625 C 5.890625 -3.285156 5.941406 -3.296875 5.984375 -3.296875 Z M 2.46875 -1.078125 C 2.695312 -1.078125 2.894531 -1.171875 3.0625 -1.359375 C 3.226562 -1.546875 3.335938 -1.816406 3.390625 -2.171875 C 3.171875 -2.316406 3.003906 -2.507812 2.890625 -2.75 C 2.773438 -3 2.71875 -3.257812 2.71875 -3.53125 C 2.71875 -3.644531 2.726562 -3.757812 2.75 -3.875 L 2.6875 -3.875 C 2.40625 -3.875 2.164062 -3.734375 1.96875 -3.453125 C 1.78125 -3.179688 1.6875 -2.796875 1.6875 -2.296875 C 1.6875 -1.898438 1.765625 -1.597656 1.921875 -1.390625 C 2.078125 -1.179688 2.257812 -1.078125 2.46875 -1.078125 Z M 2.46875 -1.078125 "/></g></g></g><g fill="#312e81" fill-opacity="1"><g transform="translate(61.72246, 17.910744)"><g><path d="M 6.53125 -2.0625 C 6.695312 -2.0625 6.78125 -1.945312 6.78125 -1.71875 C 6.78125 -1.445312 6.71875 -1.234375 6.59375 -1.078125 C 6.46875 -0.921875 6.296875 -0.84375 6.078125 -0.84375 L 5.6875 -0.84375 C 5.613281 -0.851562 5.507812 -0.859375 5.375 -0.859375 C 5.394531 -0.453125 5.40625 -0.046875 5.40625 0.359375 C 5.40625 1.441406 5.265625 2.382812 4.984375 3.1875 C 4.703125 3.988281 4.265625 4.390625 3.671875 4.390625 C 3.265625 4.390625 2.953125 4.15625 2.734375 3.6875 C 2.523438 3.21875 2.421875 2.644531 2.421875 1.96875 C 2.421875 1.132812 2.515625 0.3125 2.703125 -0.5 C 2.460938 -0.132812 2.144531 0.046875 1.75 0.046875 C 1.351562 0.046875 1.023438 -0.113281 0.765625 -0.4375 C 0.503906 -0.769531 0.375 -1.195312 0.375 -1.71875 C 0.375 -2.28125 0.503906 -2.8125 0.765625 -3.3125 C 1.035156 -3.820312 1.394531 -4.234375 1.84375 -4.546875 C 2.289062 -4.859375 2.769531 -5.015625 3.28125 -5.015625 C 3.445312 -5.015625 3.578125 -4.957031 3.671875 -4.84375 C 3.734375 -5.070312 3.828125 -5.222656 3.953125 -5.296875 C 4.085938 -5.378906 4.269531 -5.421875 4.5 -5.421875 C 4.738281 -5.421875 4.898438 -5.382812 4.984375 -5.3125 C 5.066406 -5.238281 5.109375 -5.132812 5.109375 -5 C 5.109375 -4.914062 5.0625 -4.71875 4.96875 -4.40625 C 4.875 -4.09375 4.816406 -3.890625 4.796875 -3.796875 C 4.679688 -3.390625 4.554688 -2.941406 4.421875 -2.453125 C 4.285156 -1.972656 4.179688 -1.535156 4.109375 -1.140625 C 3.878906 0.00390625 3.765625 1.015625 3.765625 1.890625 C 3.765625 2.222656 3.789062 2.503906 3.84375 2.734375 C 3.894531 2.972656 3.960938 3.09375 4.046875 3.09375 C 4.117188 3.09375 4.195312 2.96875 4.28125 2.71875 C 4.363281 2.476562 4.429688 2.15625 4.484375 1.75 C 4.546875 1.34375 4.578125 0.910156 4.578125 0.453125 C 4.578125 -0.0859375 4.550781 -0.570312 4.5 -1 C 4.488281 -1.03125 4.484375 -1.085938 4.484375 -1.171875 C 4.484375 -1.398438 4.539062 -1.59375 4.65625 -1.75 C 4.78125 -1.914062 4.953125 -2 5.171875 -2 C 5.191406 -2 5.460938 -2.007812 5.984375 -2.03125 C 6.191406 -2.050781 6.375 -2.0625 6.53125 -2.0625 Z M 2.171875 -1.03125 C 2.335938 -1.03125 2.492188 -1.128906 2.640625 -1.328125 C 2.796875 -1.535156 2.90625 -1.78125 2.96875 -2.0625 L 3.4375 -4.015625 C 3.113281 -4.015625 2.820312 -3.90625 2.5625 -3.6875 C 2.300781 -3.46875 2.09375 -3.179688 1.9375 -2.828125 C 1.789062 -2.472656 1.71875 -2.101562 1.71875 -1.71875 C 1.71875 -1.488281 1.757812 -1.316406 1.84375 -1.203125 C 1.925781 -1.085938 2.035156 -1.03125 2.171875 -1.03125 Z M 2.171875 -1.03125 "/></g></g></g><g fill="#ced0f5" fill-opacity="1"><g transform="translate(29.549861, 12.320974)"><g><path d="M -2.140625 -1.234375 L -2.609375 -1.46875 L -1.515625 -3.65625 L -1.046875 -3.421875 L -1.453125 -2.625 L 0.75 -1.515625 L 0.46875 -0.953125 L -1.734375 -2.0625 Z M -2.140625 -1.234375 "/></g></g></g><g fill="#ced0f5" fill-opacity="1"><g transform="translate(30.631548, 10.117128)"><g><path d="M 0.171875 -0.203125 L -2.109375 -2.125 L -0.8125 -3.671875 L -0.421875 -3.328125 L -1.3125 -2.265625 L -0.765625 -1.8125 L 0.046875 -2.796875 L 0.4375 -2.46875 L -0.375 -1.484375 L 0.1875 -1.015625 L 1.078125 -2.078125 L 1.46875 -1.75 Z M 0.171875 -0.203125 "/></g></g></g><g fill="#ced0f5" fill-opacity="1"><g transform="translate(31.99658, 8.371115)"><g><path d="M 1.203125 -3.265625 L 0.6875 -2.890625 C 0.570312 -3.003906 0.4375 -3.066406 0.28125 -3.078125 C 0.132812 -3.085938 -0.0078125 -3.039062 -0.15625 -2.9375 C -0.332031 -2.8125 -0.425781 -2.640625 -0.4375 -2.421875 C -0.457031 -2.203125 -0.375 -1.96875 -0.1875 -1.71875 C 0 -1.457031 0.195312 -1.300781 0.40625 -1.25 C 0.625 -1.195312 0.820312 -1.234375 1 -1.359375 C 1.132812 -1.460938 1.222656 -1.582031 1.265625 -1.71875 C 1.316406 -1.851562 1.304688 -2 1.234375 -2.15625 L 1.75 -2.53125 C 1.832031 -2.363281 1.878906 -2.1875 1.890625 -2 C 1.898438 -1.8125 1.859375 -1.617188 1.765625 -1.421875 C 1.679688 -1.234375 1.535156 -1.0625 1.328125 -0.90625 C 1.109375 -0.75 0.878906 -0.660156 0.640625 -0.640625 C 0.398438 -0.617188 0.164062 -0.660156 -0.0625 -0.765625 C -0.300781 -0.878906 -0.515625 -1.070312 -0.703125 -1.34375 C -0.898438 -1.601562 -1.015625 -1.859375 -1.046875 -2.109375 C -1.078125 -2.367188 -1.046875 -2.609375 -0.953125 -2.828125 C -0.859375 -3.046875 -0.703125 -3.234375 -0.484375 -3.390625 C -0.296875 -3.523438 -0.101562 -3.613281 0.09375 -3.65625 C 0.300781 -3.695312 0.5 -3.679688 0.6875 -3.609375 C 0.875 -3.546875 1.046875 -3.429688 1.203125 -3.265625 Z M 1.203125 -3.265625 "/></g></g></g><g fill="#ced0f5" fill-opacity="1"><g transform="translate(34.203481, 6.717265)"><g><path d="M 0.25 -0.09375 L -0.796875 -2.890625 L -0.21875 -3.109375 L 0.21875 -1.953125 L 1.421875 -2.390625 L 0.984375 -3.546875 L 1.59375 -3.78125 L 2.640625 -0.984375 L 2.03125 -0.75 L 1.59375 -1.90625 L 0.390625 -1.46875 L 0.828125 -0.3125 Z M 0.25 -0.09375 "/></g></g></g><g fill="#ced0f5" fill-opacity="1"><g transform="translate(36.881937, 5.799442)"><g/></g></g><g fill="#ced0f5" fill-opacity="1"><g transform="translate(37.520472, 5.459336)"><g><path d="M 0.9375 0.046875 L 0.234375 -2.984375 L 0.921875 -2.953125 L 1.3125 -0.84375 L 1.328125 -0.84375 L 1.984375 -2.890625 L 2.578125 -2.859375 L 3.015625 -0.75 L 3.046875 -0.75 L 3.640625 -2.8125 L 4.328125 -2.78125 L 3.328125 0.171875 L 2.703125 0.140625 L 2.234375 -1.84375 L 2.203125 -1.84375 L 1.546875 0.078125 Z M 0.9375 0.046875 "/></g></g></g><g fill="#ced0f5" fill-opacity="1"><g transform="translate(41.365528, 5.672473)"><g><path d="M 3.34375 -0.28125 C 3.21875 0.03125 3.054688 0.269531 2.859375 0.4375 C 2.660156 0.601562 2.441406 0.703125 2.203125 0.734375 C 1.960938 0.765625 1.722656 0.734375 1.484375 0.640625 C 1.234375 0.546875 1.03125 0.398438 0.875 0.203125 C 0.726562 0.00390625 0.640625 -0.21875 0.609375 -0.46875 C 0.578125 -0.726562 0.625 -1.007812 0.75 -1.3125 C 0.863281 -1.613281 1.019531 -1.847656 1.21875 -2.015625 C 1.414062 -2.179688 1.632812 -2.28125 1.875 -2.3125 C 2.125 -2.34375 2.375 -2.3125 2.625 -2.21875 C 2.863281 -2.125 3.054688 -1.976562 3.203125 -1.78125 C 3.359375 -1.59375 3.445312 -1.367188 3.46875 -1.109375 C 3.5 -0.859375 3.457031 -0.582031 3.34375 -0.28125 Z M 2.75 -0.515625 C 2.863281 -0.804688 2.882812 -1.054688 2.8125 -1.265625 C 2.75 -1.472656 2.613281 -1.617188 2.40625 -1.703125 C 2.1875 -1.785156 1.984375 -1.773438 1.796875 -1.671875 C 1.609375 -1.566406 1.457031 -1.367188 1.34375 -1.078125 C 1.21875 -0.773438 1.1875 -0.519531 1.25 -0.3125 C 1.320312 -0.113281 1.46875 0.0234375 1.6875 0.109375 C 1.894531 0.191406 2.09375 0.179688 2.28125 0.078125 C 2.46875 -0.015625 2.625 -0.210938 2.75 -0.515625 Z M 2.75 -0.515625 "/></g></g></g><g fill="#ced0f5" fill-opacity="1"><g transform="translate(44.050544, 6.733981)"><g><path d="M 0.21875 0.15625 L 2 -2.234375 L 2.9375 -1.53125 C 3.207031 -1.320312 3.363281 -1.09375 3.40625 -0.84375 C 3.457031 -0.59375 3.394531 -0.351562 3.21875 -0.125 C 3.09375 0.0507812 2.945312 0.164062 2.78125 0.21875 C 2.625 0.28125 2.457031 0.296875 2.28125 0.265625 L 2.09375 1.5625 L 1.546875 1.140625 L 1.734375 -0.046875 L 1.359375 -0.328125 L 0.71875 0.53125 Z M 1.65625 -0.71875 L 2 -0.453125 C 2.28125 -0.242188 2.507812 -0.265625 2.6875 -0.515625 C 2.863281 -0.753906 2.804688 -0.984375 2.515625 -1.203125 L 2.1875 -1.453125 Z M 1.65625 -0.71875 "/></g></g></g><g fill="#ced0f5" fill-opacity="1"><g transform="translate(45.995586, 8.166962)"><g><path d="M 0.171875 0.203125 L 2.4375 -1.734375 L 2.84375 -1.265625 L 0.96875 0.328125 L 1.8125 1.296875 L 1.421875 1.640625 Z M 0.171875 0.203125 "/></g></g></g><g fill="#ced0f5" fill-opacity="1"><g transform="translate(47.382812, 9.669361)"><g><path d="M 0.59375 1.171875 L 0.125 0.234375 L 2.78125 -1.125 L 3.265625 -0.171875 C 3.398438 0.0859375 3.460938 0.34375 3.453125 0.59375 C 3.441406 0.84375 3.363281 1.066406 3.21875 1.265625 C 3.082031 1.460938 2.875 1.632812 2.59375 1.78125 C 2.320312 1.925781 2.054688 2 1.796875 2 C 1.546875 2 1.316406 1.925781 1.109375 1.78125 C 0.910156 1.644531 0.738281 1.441406 0.59375 1.171875 Z M 0.890625 0.546875 L 1.078125 0.90625 C 1.203125 1.15625 1.363281 1.3125 1.5625 1.375 C 1.769531 1.4375 2.019531 1.390625 2.3125 1.234375 C 2.613281 1.078125 2.796875 0.898438 2.859375 0.703125 C 2.929688 0.503906 2.90625 0.28125 2.78125 0.03125 L 2.59375 -0.328125 Z M 0.890625 0.546875 "/></g></g></g><g clip-path="url(#f4c09f6d1e)"><g clip-path="url(#d93e6fe4b2)"><g clip-path="url(#897f94c7a2)"><path fill="#312e81" d="M 18.332031 13.449219 C 17.980469 13.242188 17.609375 13.101562 17.210938 13.023438 C 16.410156 12.871094 15.632812 12.941406 14.875 13.242188 C 14.511719 13.382812 14.167969 13.558594 13.835938 13.765625 C 13.554688 13.9375 13.257812 14.144531 12.90625 14.410156 C 12.671875 14.585938 12.441406 14.769531 12.21875 14.945312 C 11.875 15.21875 11.433594 15.546875 11.070312 15.804688 L 11.289062 16.023438 C 11.65625 15.761719 12.050781 15.449219 12.398438 15.171875 C 12.621094 14.996094 12.851562 14.816406 13.078125 14.644531 C 13.425781 14.382812 13.714844 14.179688 13.988281 14.011719 C 14.304688 13.8125 14.632812 13.648438 14.976562 13.511719 C 15.683594 13.234375 16.410156 13.164062 17.15625 13.308594 C 17.519531 13.378906 17.863281 13.507812 18.183594 13.699219 C 18.464844 13.863281 18.714844 14.066406 18.933594 14.3125 L 19.203125 14.179688 C 18.953125 13.886719 18.664062 13.640625 18.332031 13.449219 Z M 18.332031 13.449219 " fill-opacity="1" fill-rule="nonzero"/></g></g></g><g clip-path="url(#fe6986dba5)"><g clip-path="url(#c496d5fe19)"><g clip-path="url(#6df6243c61)"><path fill="#312e81" d="M 18.476562 13.203125 C 18.097656 12.980469 17.695312 12.828125 17.265625 12.746094 C 16.414062 12.582031 15.582031 12.660156 14.773438 12.976562 C 14.394531 13.125 14.035156 13.308594 13.6875 13.523438 C 13.398438 13.703125 13.09375 13.914062 12.734375 14.1875 C 12.5 14.363281 12.265625 14.546875 12.042969 14.726562 C 11.683594 15.007812 11.34375 15.277344 10.992188 15.527344 L 11.160156 15.765625 C 11.519531 15.511719 11.859375 15.238281 12.222656 14.953125 C 12.445312 14.777344 12.675781 14.59375 12.910156 14.417969 C 13.261719 14.152344 13.558594 13.945312 13.839844 13.769531 C 14.171875 13.5625 14.515625 13.390625 14.878906 13.246094 C 15.632812 12.949219 16.410156 12.878906 17.210938 13.03125 C 17.609375 13.109375 17.980469 13.25 18.328125 13.453125 C 18.65625 13.648438 18.945312 13.890625 19.195312 14.183594 L 19.464844 14.050781 C 19.183594 13.710938 18.855469 13.429688 18.476562 13.203125 Z M 18.476562 13.203125 " fill-opacity="1" fill-rule="nonzero"/></g></g></g><g clip-path="url(#05717a5c75)"><g clip-path="url(#32b5d53099)"><g clip-path="url(#8949198d39)"><path fill="#312e81" d="M 17.15625 13.300781 C 16.410156 13.160156 15.683594 13.230469 14.972656 13.503906 C 14.253906 13.78125 13.609375 14.234375 13.074219 14.636719 C 12.847656 14.808594 12.621094 14.988281 12.398438 15.164062 C 12.050781 15.441406 11.632812 15.765625 11.261719 16.027344 L 11.441406 16.269531 C 11.820312 16 12.226562 15.667969 12.578125 15.390625 C 12.796875 15.21875 13.023438 15.039062 13.25 14.867188 C 13.769531 14.476562 14.390625 14.039062 15.078125 13.777344 C 15.734375 13.519531 16.40625 13.457031 17.097656 13.585938 C 17.714844 13.703125 18.238281 13.988281 18.667969 14.441406 L 18.941406 14.308594 C 18.457031 13.769531 17.863281 13.433594 17.15625 13.300781 Z M 17.15625 13.300781 " fill-opacity="1" fill-rule="nonzero"/><path fill="#312e81" d="M 17.101562 13.578125 C 16.40625 13.449219 15.730469 13.511719 15.074219 13.769531 C 14.386719 14.03125 13.765625 14.46875 13.246094 14.863281 C 13.023438 15.03125 12.796875 15.210938 12.578125 15.382812 C 12.226562 15.660156 11.796875 15.992188 11.417969 16.261719 L 11.617188 16.476562 C 12.003906 16.203125 12.402344 15.890625 12.757812 15.609375 C 12.984375 15.429688 13.199219 15.261719 13.421875 15.09375 C 13.921875 14.714844 14.523438 14.289062 15.179688 14.039062 C 15.785156 13.804688 16.40625 13.742188 17.042969 13.863281 C 17.566406 13.960938 18.019531 14.199219 18.402344 14.570312 L 18.675781 14.4375 C 18.242188 13.984375 17.71875 13.695312 17.101562 13.578125 Z M 17.101562 13.578125 " fill-opacity="1" fill-rule="nonzero"/></g></g></g><g clip-path="url(#be4ff4042d)"><g clip-path="url(#81ca38613a)"><g clip-path="url(#f276549622)"><path fill="#312e81" d="M 5.195312 14.808594 C 5.128906 14.675781 5.070312 14.539062 5.011719 14.394531 C 4.882812 14.046875 4.789062 13.691406 4.742188 13.320312 L 5.03125 13.285156 C 5.074219 13.628906 5.160156 13.964844 5.285156 14.292969 C 5.410156 14.617188 5.570312 14.925781 5.761719 15.21875 C 6.167969 15.828125 6.695312 16.289062 7.289062 16.550781 C 7.597656 16.6875 7.925781 16.765625 8.261719 16.785156 C 8.605469 16.808594 8.945312 16.777344 9.277344 16.695312 C 9.613281 16.609375 9.9375 16.484375 10.246094 16.320312 C 10.5625 16.152344 10.863281 15.964844 11.152344 15.757812 L 11.320312 15.996094 C 11.019531 16.210938 10.707031 16.40625 10.378906 16.578125 C 10.050781 16.75 9.707031 16.882812 9.347656 16.976562 C 8.984375 17.066406 8.617188 17.101562 8.246094 17.074219 C 7.871094 17.054688 7.515625 16.96875 7.171875 16.816406 C 6.527344 16.535156 5.957031 16.035156 5.519531 15.378906 C 5.398438 15.195312 5.289062 15.007812 5.195312 14.808594 Z M 5.195312 14.808594 " fill-opacity="1" fill-rule="nonzero"/></g></g></g><g clip-path="url(#c173c5e5c3)"><g clip-path="url(#f95f3f70e1)"><g clip-path="url(#f15a9e9a6a)"><path fill="#312e81" d="M 5.449219 14.683594 C 5.386719 14.558594 5.328125 14.429688 5.277344 14.296875 C 5.152344 13.96875 5.066406 13.632812 5.023438 13.285156 L 5.308594 13.25 C 5.351562 13.570312 5.433594 13.886719 5.546875 14.191406 C 5.667969 14.496094 5.816406 14.785156 5.996094 15.058594 C 6.367188 15.621094 6.867188 16.058594 7.402344 16.292969 L 7.40625 16.296875 C 7.460938 16.320312 7.515625 16.34375 7.570312 16.359375 L 7.671875 16.394531 C 7.675781 16.398438 7.6875 16.398438 7.695312 16.402344 C 7.703125 16.40625 7.710938 16.40625 7.71875 16.410156 L 7.839844 16.441406 C 7.867188 16.449219 7.894531 16.453125 7.925781 16.457031 L 8.054688 16.480469 C 8.097656 16.488281 8.144531 16.492188 8.191406 16.496094 C 8.222656 16.5 8.253906 16.5 8.285156 16.503906 C 8.597656 16.523438 8.90625 16.496094 9.210938 16.421875 C 9.75 16.289062 10.417969 15.933594 11.09375 15.453125 L 11.179688 15.75 C 10.476562 16.246094 9.855469 16.558594 9.277344 16.703125 C 8.945312 16.785156 8.605469 16.816406 8.261719 16.792969 L 8.257812 16.792969 C 8.226562 16.789062 8.199219 16.789062 8.167969 16.785156 C 8.117188 16.78125 8.0625 16.777344 8.007812 16.765625 L 7.878906 16.742188 C 7.835938 16.738281 7.796875 16.730469 7.757812 16.71875 L 7.625 16.683594 C 7.609375 16.679688 7.59375 16.675781 7.578125 16.671875 L 7.476562 16.632812 C 7.410156 16.613281 7.34375 16.585938 7.28125 16.558594 C 6.699219 16.300781 6.15625 15.824219 5.753906 15.222656 C 5.640625 15.050781 5.539062 14.871094 5.449219 14.683594 Z M 5.449219 14.683594 " fill-opacity="1" fill-rule="nonzero"/></g></g></g><g clip-path="url(#73eedb4a42)"><g clip-path="url(#22b255e901)"><g clip-path="url(#da1205e0ed)"><path fill="#312e81" d="M 4.941406 14.933594 C 4.871094 14.792969 4.808594 14.644531 4.75 14.496094 C 4.609375 14.128906 4.511719 13.746094 4.460938 13.355469 L 4.75 13.320312 C 4.796875 13.6875 4.886719 14.046875 5.019531 14.390625 C 5.152344 14.738281 5.320312 15.066406 5.527344 15.375 C 5.730469 15.683594 5.972656 15.960938 6.25 16.210938 C 6.527344 16.457031 6.835938 16.660156 7.175781 16.808594 L 7.179688 16.8125 C 7.25 16.84375 7.324219 16.875 7.394531 16.898438 L 7.503906 16.933594 C 7.511719 16.9375 7.523438 16.941406 7.535156 16.945312 C 7.546875 16.945312 7.554688 16.949219 7.5625 16.953125 L 7.703125 16.988281 C 7.742188 17 7.78125 17.007812 7.820312 17.011719 L 7.976562 17.039062 C 8.03125 17.046875 8.089844 17.054688 8.148438 17.058594 C 8.183594 17.0625 8.214844 17.066406 8.25 17.066406 C 8.617188 17.09375 8.984375 17.058594 9.34375 16.96875 C 9.703125 16.878906 10.046875 16.746094 10.375 16.570312 C 10.703125 16.398438 11.015625 16.203125 11.316406 15.988281 L 11.484375 16.226562 C 11.171875 16.449219 10.847656 16.648438 10.507812 16.828125 C 10.160156 17.011719 9.796875 17.152344 9.414062 17.25 C 9.023438 17.347656 8.628906 17.382812 8.226562 17.355469 L 8.222656 17.355469 C 8.1875 17.351562 8.15625 17.351562 8.125 17.347656 C 8.0625 17.34375 7.996094 17.335938 7.929688 17.324219 L 7.773438 17.300781 C 7.722656 17.292969 7.671875 17.28125 7.625 17.265625 L 7.464844 17.226562 C 7.445312 17.21875 7.425781 17.214844 7.410156 17.210938 L 7.300781 17.171875 C 7.21875 17.144531 7.136719 17.109375 7.054688 17.074219 C 6.6875 16.910156 6.355469 16.695312 6.058594 16.425781 C 5.761719 16.164062 5.503906 15.867188 5.285156 15.535156 C 5.15625 15.34375 5.042969 15.140625 4.941406 14.933594 Z M 4.941406 14.933594 " fill-opacity="1" fill-rule="nonzero"/><path fill="#312e81" d="M 4.6875 15.058594 C 4.613281 14.90625 4.546875 14.753906 4.484375 14.597656 C 4.335938 14.207031 4.234375 13.804688 4.183594 13.394531 L 4.46875 13.355469 C 4.519531 13.746094 4.617188 14.125 4.757812 14.492188 C 4.898438 14.859375 5.074219 15.203125 5.292969 15.53125 C 5.511719 15.859375 5.765625 16.15625 6.0625 16.421875 C 6.359375 16.6875 6.695312 16.90625 7.0625 17.070312 L 7.066406 17.070312 C 7.144531 17.105469 7.226562 17.140625 7.308594 17.167969 L 7.417969 17.203125 C 7.429688 17.207031 7.445312 17.210938 7.457031 17.214844 L 7.636719 17.261719 C 7.679688 17.273438 7.726562 17.285156 7.773438 17.292969 L 7.933594 17.320312 C 7.996094 17.328125 8.0625 17.335938 8.128906 17.339844 C 8.164062 17.34375 8.195312 17.347656 8.230469 17.351562 C 8.628906 17.375 9.023438 17.339844 9.410156 17.242188 C 9.792969 17.148438 10.15625 17.003906 10.503906 16.820312 C 10.84375 16.644531 11.167969 16.441406 11.480469 16.21875 L 11.648438 16.457031 C 11.324219 16.6875 10.988281 16.894531 10.640625 17.078125 C 10.269531 17.273438 9.886719 17.421875 9.480469 17.527344 C 9.0625 17.628906 8.640625 17.667969 8.210938 17.640625 L 8.203125 17.636719 C 8.171875 17.636719 8.136719 17.632812 8.105469 17.628906 C 8.035156 17.625 7.960938 17.617188 7.886719 17.605469 L 7.722656 17.578125 C 7.667969 17.566406 7.613281 17.554688 7.558594 17.542969 L 7.382812 17.496094 C 7.363281 17.492188 7.34375 17.484375 7.324219 17.480469 L 7.214844 17.441406 C 7.121094 17.410156 7.03125 17.375 6.941406 17.332031 C 6.550781 17.15625 6.191406 16.925781 5.871094 16.636719 C 5.554688 16.359375 5.285156 16.042969 5.050781 15.691406 C 4.914062 15.488281 4.792969 15.277344 4.6875 15.058594 Z M 4.6875 15.058594 " fill-opacity="1" fill-rule="nonzero"/></g></g></g><g clip-path="url(#510138c13c)"><g clip-path="url(#6a76214c5b)"><g clip-path="url(#fd4f6f6473)"><path fill="#312e81" d="M 4.742188 13.320312 C 4.691406 12.953125 4.695312 12.582031 4.757812 12.214844 C 4.816406 11.84375 4.945312 11.5 5.144531 11.183594 C 5.246094 11.027344 5.363281 10.882812 5.496094 10.753906 L 5.597656 10.65625 L 5.707031 10.566406 C 5.722656 10.554688 5.738281 10.542969 5.753906 10.535156 C 5.8125 10.488281 5.875 10.449219 5.9375 10.414062 C 6.09375 10.316406 6.261719 10.242188 6.4375 10.1875 C 6.617188 10.132812 6.796875 10.09375 6.980469 10.074219 C 7.351562 10.039062 7.71875 10.074219 8.078125 10.175781 L 8.148438 10.195312 L 8.210938 10.21875 C 8.230469 10.222656 8.242188 10.230469 8.257812 10.234375 C 8.285156 10.242188 8.316406 10.253906 8.347656 10.265625 L 8.476562 10.320312 L 8.59375 10.375 C 8.757812 10.460938 8.914062 10.566406 9.054688 10.6875 C 9.339844 10.933594 9.5625 11.226562 9.726562 11.5625 C 9.902344 11.929688 9.96875 12.34375 9.914062 12.679688 L 9.605469 12.652344 C 9.648438 12.316406 9.601562 11.996094 9.464844 11.6875 C 9.320312 11.386719 9.117188 11.125 8.867188 10.910156 C 8.742188 10.800781 8.609375 10.710938 8.460938 10.632812 L 8.355469 10.582031 L 8.238281 10.535156 C 8.214844 10.523438 8.191406 10.515625 8.164062 10.507812 C 8.148438 10.503906 8.132812 10.496094 8.117188 10.492188 L 8.0625 10.472656 L 8 10.457031 C 7.839844 10.410156 7.675781 10.378906 7.507812 10.363281 C 7.34375 10.347656 7.175781 10.347656 7.007812 10.363281 C 6.84375 10.382812 6.683594 10.414062 6.523438 10.464844 C 6.371094 10.511719 6.222656 10.578125 6.082031 10.664062 C 6.027344 10.695312 5.976562 10.730469 5.925781 10.769531 C 5.910156 10.777344 5.894531 10.789062 5.882812 10.800781 L 5.789062 10.878906 L 5.695312 10.964844 C 5.578125 11.078125 5.476562 11.203125 5.390625 11.339844 C 5.210938 11.625 5.09375 11.933594 5.042969 12.265625 C 4.988281 12.601562 4.984375 12.945312 5.03125 13.285156 Z M 4.742188 13.320312 " fill-opacity="1" fill-rule="nonzero"/><path fill="#312e81" d="M 5.023438 13.285156 C 4.976562 12.945312 4.980469 12.601562 5.035156 12.261719 C 5.085938 11.929688 5.203125 11.621094 5.382812 11.335938 C 5.472656 11.199219 5.574219 11.070312 5.691406 10.957031 L 5.785156 10.871094 L 5.882812 10.789062 C 5.898438 10.777344 5.914062 10.765625 5.929688 10.753906 C 5.980469 10.71875 6.03125 10.683594 6.082031 10.65625 C 6.222656 10.570312 6.371094 10.503906 6.523438 10.457031 C 6.683594 10.40625 6.84375 10.375 7.007812 10.355469 C 7.171875 10.339844 7.339844 10.339844 7.507812 10.355469 C 7.675781 10.371094 7.839844 10.402344 8.003906 10.449219 L 8.066406 10.46875 L 8.125 10.484375 C 8.140625 10.492188 8.152344 10.496094 8.164062 10.5 C 8.191406 10.507812 8.21875 10.519531 8.246094 10.53125 L 8.363281 10.578125 L 8.460938 10.625 C 8.609375 10.703125 8.746094 10.792969 8.871094 10.902344 C 9.125 11.121094 9.324219 11.382812 9.46875 11.683594 C 9.621094 11.996094 9.675781 12.320312 9.628906 12.597656 L 9.34375 12.550781 C 9.378906 12.335938 9.332031 12.066406 9.207031 11.808594 C 9.082031 11.542969 8.90625 11.3125 8.679688 11.121094 C 8.574219 11.03125 8.457031 10.949219 8.332031 10.882812 L 8.242188 10.839844 L 8.132812 10.796875 C 8.113281 10.789062 8.09375 10.78125 8.074219 10.777344 C 8.058594 10.769531 8.042969 10.765625 8.027344 10.757812 L 7.925781 10.726562 C 7.78125 10.6875 7.632812 10.660156 7.484375 10.644531 C 7.335938 10.632812 7.183594 10.632812 7.035156 10.644531 C 6.890625 10.660156 6.75 10.6875 6.609375 10.730469 C 6.476562 10.773438 6.347656 10.832031 6.226562 10.90625 C 6.183594 10.929688 6.140625 10.960938 6.101562 10.988281 C 6.085938 11 6.070312 11.011719 6.054688 11.023438 L 5.972656 11.089844 L 5.890625 11.164062 C 5.789062 11.265625 5.703125 11.375 5.625 11.492188 C 5.46875 11.742188 5.367188 12.015625 5.320312 12.308594 C 5.269531 12.621094 5.265625 12.933594 5.308594 13.25 Z M 5.023438 13.285156 " fill-opacity="1" fill-rule="nonzero"/></g></g></g><g clip-path="url(#49fff737fd)"><g clip-path="url(#15a909a567)"><g clip-path="url(#64c704e503)"><path fill="#312e81" d="M 4.460938 13.355469 C 4.410156 12.960938 4.414062 12.5625 4.476562 12.167969 C 4.542969 11.757812 4.683594 11.378906 4.90625 11.03125 C 5.019531 10.855469 5.148438 10.695312 5.296875 10.550781 L 5.335938 10.515625 C 5.359375 10.492188 5.382812 10.46875 5.410156 10.449219 L 5.414062 10.445312 L 5.535156 10.34375 L 5.578125 10.3125 C 5.644531 10.261719 5.714844 10.214844 5.789062 10.171875 C 5.96875 10.0625 6.15625 9.980469 6.351562 9.917969 C 6.546875 9.855469 6.746094 9.816406 6.953125 9.792969 C 7.359375 9.757812 7.761719 9.792969 8.15625 9.90625 L 8.234375 9.925781 L 8.300781 9.949219 C 8.320312 9.957031 8.332031 9.960938 8.347656 9.964844 C 8.382812 9.976562 8.414062 9.988281 8.449219 10.003906 L 8.589844 10.058594 L 8.722656 10.125 C 8.910156 10.21875 9.082031 10.335938 9.238281 10.472656 C 9.554688 10.746094 9.800781 11.066406 9.980469 11.441406 C 10.070312 11.632812 10.136719 11.832031 10.175781 12.039062 C 10.21875 12.285156 10.222656 12.535156 10.1875 12.789062 L 9.898438 12.65625 C 9.929688 12.46875 9.925781 12.277344 9.890625 12.089844 C 9.855469 11.90625 9.800781 11.734375 9.71875 11.566406 C 9.558594 11.226562 9.335938 10.9375 9.050781 10.695312 C 8.910156 10.574219 8.757812 10.46875 8.59375 10.382812 L 8.46875 10.324219 L 8.335938 10.269531 C 8.3125 10.257812 8.285156 10.25 8.257812 10.242188 C 8.242188 10.234375 8.222656 10.230469 8.207031 10.222656 L 8.144531 10.203125 L 8.078125 10.183594 C 7.71875 10.082031 7.351562 10.046875 6.980469 10.082031 C 6.796875 10.101562 6.617188 10.140625 6.4375 10.195312 C 6.261719 10.25 6.09375 10.324219 5.9375 10.421875 C 5.871094 10.460938 5.808594 10.503906 5.746094 10.546875 L 5.707031 10.578125 L 5.601562 10.664062 C 5.578125 10.6875 5.554688 10.707031 5.53125 10.726562 L 5.496094 10.761719 C 5.363281 10.890625 5.25 11.03125 5.148438 11.1875 C 4.949219 11.503906 4.820312 11.847656 4.761719 12.214844 C 4.703125 12.582031 4.699219 12.953125 4.75 13.320312 Z M 4.460938 13.355469 " fill-opacity="1" fill-rule="nonzero"/><path fill="#312e81" d="M 4.183594 13.394531 C 4.125 12.96875 4.128906 12.542969 4.199219 12.121094 C 4.269531 11.675781 4.429688 11.261719 4.667969 10.878906 C 4.792969 10.683594 4.9375 10.507812 5.097656 10.351562 L 5.132812 10.316406 C 5.164062 10.289062 5.191406 10.261719 5.222656 10.234375 L 5.226562 10.230469 L 5.359375 10.125 L 5.398438 10.097656 C 5.476562 10.035156 5.558594 9.980469 5.644531 9.929688 C 5.839844 9.8125 6.046875 9.71875 6.265625 9.648438 C 6.480469 9.582031 6.699219 9.535156 6.925781 9.511719 C 7.367188 9.472656 7.804688 9.511719 8.234375 9.632812 L 8.316406 9.65625 L 8.390625 9.683594 C 8.410156 9.6875 8.425781 9.695312 8.441406 9.699219 C 8.476562 9.710938 8.511719 9.722656 8.550781 9.738281 L 8.703125 9.800781 L 8.851562 9.875 C 9.058594 9.980469 9.246094 10.109375 9.421875 10.261719 C 9.769531 10.558594 10.039062 10.910156 10.234375 11.320312 C 10.335938 11.535156 10.410156 11.753906 10.453125 11.984375 C 10.5 12.234375 10.503906 12.484375 10.464844 12.734375 L 10.179688 12.6875 C 10.214844 12.46875 10.210938 12.253906 10.167969 12.039062 C 10.128906 11.832031 10.066406 11.636719 9.972656 11.445312 C 9.792969 11.070312 9.546875 10.75 9.234375 10.480469 C 9.078125 10.34375 8.90625 10.230469 8.722656 10.132812 L 8.582031 10.066406 L 8.4375 10.007812 C 8.410156 9.996094 8.378906 9.984375 8.347656 9.972656 C 8.332031 9.96875 8.3125 9.960938 8.296875 9.957031 L 8.226562 9.933594 L 8.15625 9.914062 C 7.761719 9.800781 7.359375 9.765625 6.953125 9.800781 C 6.75 9.824219 6.550781 9.863281 6.351562 9.925781 C 6.15625 9.988281 5.96875 10.074219 5.789062 10.179688 C 5.714844 10.226562 5.640625 10.277344 5.566406 10.328125 L 5.535156 10.355469 L 5.414062 10.453125 C 5.386719 10.476562 5.359375 10.503906 5.332031 10.53125 L 5.300781 10.558594 C 5.152344 10.703125 5.023438 10.863281 4.914062 11.035156 C 4.691406 11.382812 4.550781 11.761719 4.484375 12.167969 C 4.421875 12.5625 4.417969 12.960938 4.46875 13.355469 Z M 4.183594 13.394531 " fill-opacity="1" fill-rule="nonzero"/></g></g></g><g clip-path="url(#94354de9f5)"><g clip-path="url(#ccd71ed6af)"><g clip-path="url(#c56558065b)"><path fill="#312e81" d="M 2.363281 11.175781 L 2.648438 11.03125 C 2.898438 11.292969 3.164062 11.542969 3.441406 11.773438 C 3.71875 12.003906 4.007812 12.21875 4.304688 12.417969 C 4.605469 12.617188 4.914062 12.800781 5.234375 12.964844 L 5.355469 13.027344 L 5.53125 13.113281 C 5.59375 13.144531 5.652344 13.171875 5.714844 13.199219 C 5.875 13.269531 6.042969 13.339844 6.207031 13.398438 C 6.539062 13.515625 6.878906 13.601562 7.230469 13.652344 C 7.398438 13.675781 7.570312 13.691406 7.742188 13.691406 L 7.746094 13.691406 C 7.804688 13.695312 7.863281 13.691406 7.925781 13.6875 C 7.953125 13.6875 7.976562 13.683594 8.003906 13.683594 C 8.027344 13.683594 8.050781 13.679688 8.074219 13.675781 C 8.09375 13.675781 8.109375 13.671875 8.125 13.671875 L 8.152344 13.667969 C 8.183594 13.664062 8.214844 13.664062 8.242188 13.65625 L 8.375 13.632812 C 8.398438 13.628906 8.421875 13.621094 8.445312 13.617188 C 8.464844 13.613281 8.480469 13.609375 8.496094 13.605469 C 8.550781 13.589844 8.605469 13.574219 8.660156 13.554688 C 8.683594 13.546875 8.707031 13.539062 8.730469 13.53125 C 8.882812 13.476562 9.023438 13.402344 9.15625 13.3125 C 9.28125 13.226562 9.386719 13.125 9.46875 12.996094 C 9.550781 12.875 9.601562 12.742188 9.621094 12.597656 L 9.910156 12.640625 C 9.878906 12.828125 9.8125 13 9.710938 13.15625 C 9.605469 13.3125 9.476562 13.445312 9.324219 13.550781 C 9.167969 13.65625 9.007812 13.738281 8.832031 13.800781 L 8.824219 13.804688 C 8.800781 13.8125 8.777344 13.820312 8.753906 13.828125 C 8.6875 13.851562 8.625 13.871094 8.558594 13.886719 C 8.546875 13.890625 8.535156 13.894531 8.519531 13.898438 C 8.488281 13.90625 8.460938 13.914062 8.429688 13.917969 L 8.296875 13.941406 C 8.257812 13.949219 8.21875 13.953125 8.183594 13.957031 L 8.15625 13.960938 C 8.140625 13.960938 8.125 13.964844 8.109375 13.964844 C 8.078125 13.96875 8.046875 13.972656 8.015625 13.972656 C 7.988281 13.976562 7.964844 13.976562 7.941406 13.976562 C 7.875 13.980469 7.808594 13.984375 7.738281 13.980469 C 7.554688 13.980469 7.375 13.964844 7.191406 13.941406 C 6.824219 13.886719 6.464844 13.796875 6.113281 13.671875 C 5.9375 13.609375 5.761719 13.535156 5.601562 13.464844 C 5.535156 13.4375 5.46875 13.40625 5.40625 13.375 L 5.226562 13.289062 L 5.101562 13.222656 C 4.769531 13.054688 4.453125 12.867188 4.144531 12.660156 C 3.835938 12.453125 3.542969 12.234375 3.257812 11.996094 C 2.945312 11.738281 2.648438 11.464844 2.363281 11.175781 Z M 2.363281 11.175781 " fill-opacity="1" fill-rule="nonzero"/></g></g></g><g clip-path="url(#c8e923d5fc)"><g clip-path="url(#2494e702b0)"><g clip-path="url(#59c19ee110)"><path fill="#312e81" d="M 2.585938 10.980469 L 2.855469 10.839844 C 3.097656 11.09375 3.351562 11.332031 3.621094 11.558594 C 3.890625 11.78125 4.171875 11.988281 4.460938 12.183594 C 4.753906 12.378906 5.054688 12.554688 5.363281 12.714844 L 5.480469 12.777344 L 5.65625 12.859375 C 5.714844 12.886719 5.769531 12.914062 5.828125 12.941406 C 5.988281 13.011719 6.144531 13.078125 6.304688 13.132812 C 6.617188 13.246094 6.9375 13.324219 7.269531 13.375 C 7.425781 13.394531 7.582031 13.40625 7.742188 13.410156 L 7.75 13.410156 C 7.800781 13.410156 7.851562 13.410156 7.90625 13.40625 C 7.933594 13.40625 7.957031 13.402344 7.984375 13.402344 C 8.003906 13.402344 8.023438 13.398438 8.046875 13.394531 C 8.0625 13.394531 8.078125 13.390625 8.09375 13.390625 L 8.117188 13.386719 C 8.144531 13.386719 8.171875 13.382812 8.195312 13.378906 L 8.203125 13.378906 L 8.320312 13.355469 C 8.335938 13.351562 8.359375 13.347656 8.378906 13.34375 C 8.394531 13.339844 8.410156 13.335938 8.425781 13.332031 C 8.472656 13.320312 8.519531 13.304688 8.5625 13.289062 C 8.585938 13.28125 8.609375 13.273438 8.632812 13.265625 C 8.761719 13.21875 8.878906 13.15625 8.992188 13.082031 C 9.089844 13.019531 9.167969 12.9375 9.234375 12.84375 C 9.289062 12.757812 9.335938 12.570312 9.355469 12.460938 L 9.632812 12.574219 C 9.609375 12.726562 9.558594 12.871094 9.476562 13 C 9.390625 13.128906 9.285156 13.234375 9.160156 13.320312 C 9.027344 13.410156 8.886719 13.480469 8.734375 13.539062 L 8.722656 13.542969 C 8.703125 13.546875 8.679688 13.554688 8.65625 13.5625 C 8.601562 13.585938 8.546875 13.601562 8.488281 13.613281 C 8.476562 13.617188 8.464844 13.621094 8.453125 13.621094 C 8.425781 13.628906 8.398438 13.636719 8.371094 13.640625 L 8.253906 13.664062 C 8.21875 13.667969 8.183594 13.675781 8.148438 13.675781 L 8.125 13.679688 C 8.109375 13.679688 8.09375 13.683594 8.082031 13.683594 C 8.050781 13.6875 8.023438 13.691406 7.996094 13.691406 C 7.96875 13.691406 7.945312 13.695312 7.921875 13.695312 C 7.863281 13.699219 7.804688 13.703125 7.742188 13.699219 C 7.570312 13.699219 7.398438 13.683594 7.230469 13.660156 C 6.878906 13.609375 6.539062 13.523438 6.207031 13.40625 C 6.039062 13.347656 5.878906 13.277344 5.714844 13.207031 C 5.652344 13.179688 5.589844 13.152344 5.527344 13.121094 L 5.351562 13.035156 L 5.230469 12.972656 C 4.910156 12.808594 4.601562 12.625 4.300781 12.425781 C 4 12.226562 3.714844 12.011719 3.4375 11.78125 C 3.140625 11.527344 2.855469 11.261719 2.585938 10.980469 Z M 2.585938 10.980469 " fill-opacity="1" fill-rule="nonzero"/></g></g></g><g clip-path="url(#c6d174c091)"><g clip-path="url(#f135a57782)"><g clip-path="url(#81c43050cd)"><path fill="#312e81" d="M 2.167969 11.398438 L 2.4375 11.222656 C 2.695312 11.496094 2.972656 11.75 3.261719 11.992188 C 3.546875 12.226562 3.839844 12.449219 4.148438 12.65625 C 4.457031 12.859375 4.773438 13.046875 5.101562 13.21875 L 5.226562 13.28125 L 5.410156 13.367188 C 5.472656 13.398438 5.535156 13.429688 5.597656 13.457031 C 5.765625 13.527344 5.9375 13.605469 6.113281 13.664062 C 6.464844 13.789062 6.824219 13.878906 7.191406 13.933594 C 7.371094 13.957031 7.554688 13.972656 7.738281 13.972656 L 7.746094 13.972656 C 7.808594 13.976562 7.875 13.972656 7.945312 13.96875 C 7.96875 13.96875 7.996094 13.96875 8.023438 13.964844 C 8.046875 13.964844 8.078125 13.960938 8.105469 13.957031 C 8.125 13.957031 8.140625 13.953125 8.15625 13.953125 L 8.183594 13.949219 C 8.21875 13.945312 8.253906 13.941406 8.285156 13.9375 L 8.433594 13.910156 C 8.457031 13.90625 8.488281 13.898438 8.515625 13.890625 C 8.53125 13.886719 8.546875 13.882812 8.566406 13.878906 C 8.628906 13.863281 8.691406 13.84375 8.753906 13.820312 C 8.78125 13.8125 8.804688 13.804688 8.828125 13.796875 C 9.003906 13.730469 9.164062 13.648438 9.320312 13.542969 C 9.472656 13.4375 9.601562 13.308594 9.703125 13.152344 C 9.808594 12.996094 9.871094 12.824219 9.902344 12.640625 L 10.1875 12.6875 C 10.152344 12.914062 10.070312 13.121094 9.949219 13.3125 C 9.824219 13.5 9.667969 13.65625 9.484375 13.78125 C 9.3125 13.898438 9.128906 13.996094 8.929688 14.066406 L 8.921875 14.070312 C 8.898438 14.078125 8.875 14.085938 8.847656 14.09375 C 8.777344 14.121094 8.703125 14.144531 8.628906 14.160156 C 8.617188 14.164062 8.601562 14.167969 8.585938 14.171875 C 8.554688 14.179688 8.519531 14.1875 8.484375 14.195312 L 8.339844 14.21875 C 8.300781 14.230469 8.257812 14.234375 8.214844 14.238281 L 8.1875 14.242188 C 8.171875 14.242188 8.15625 14.246094 8.140625 14.246094 C 8.105469 14.25 8.070312 14.253906 8.035156 14.253906 C 8.007812 14.257812 7.984375 14.257812 7.957031 14.257812 C 7.886719 14.261719 7.8125 14.265625 7.738281 14.265625 C 7.542969 14.261719 7.347656 14.246094 7.152344 14.222656 C 6.765625 14.164062 6.386719 14.070312 6.019531 13.9375 C 5.832031 13.875 5.652344 13.796875 5.484375 13.722656 C 5.417969 13.695312 5.347656 13.660156 5.285156 13.628906 L 5.097656 13.542969 L 4.96875 13.472656 C 4.632812 13.300781 4.304688 13.105469 3.988281 12.894531 C 3.671875 12.683594 3.367188 12.457031 3.074219 12.214844 C 2.757812 11.957031 2.457031 11.6875 2.167969 11.398438 Z M 2.167969 11.398438 " fill-opacity="1" fill-rule="nonzero"/></g></g></g><g clip-path="url(#06ef1d4741)"><g clip-path="url(#ea8e1a6a7b)"><g clip-path="url(#193d5e025e)"><path fill="#312e81" d="M 1.957031 11.546875 L 2.234375 11.417969 C 2.5 11.695312 2.78125 11.960938 3.078125 12.207031 C 3.371094 12.449219 3.675781 12.679688 3.992188 12.890625 C 4.308594 13.101562 4.636719 13.292969 4.972656 13.46875 L 5.101562 13.535156 L 5.289062 13.625 C 5.355469 13.65625 5.417969 13.6875 5.484375 13.714844 C 5.648438 13.785156 5.832031 13.867188 6.019531 13.929688 C 6.386719 14.0625 6.765625 14.15625 7.152344 14.214844 C 7.34375 14.238281 7.539062 14.253906 7.738281 14.257812 L 7.742188 14.257812 C 7.8125 14.257812 7.886719 14.253906 7.964844 14.25 C 7.988281 14.25 8.015625 14.25 8.042969 14.246094 C 8.070312 14.246094 8.101562 14.242188 8.136719 14.238281 C 8.152344 14.238281 8.171875 14.234375 8.1875 14.234375 L 8.214844 14.230469 C 8.257812 14.226562 8.292969 14.222656 8.332031 14.214844 L 8.488281 14.1875 C 8.519531 14.179688 8.550781 14.171875 8.582031 14.164062 C 8.601562 14.160156 8.617188 14.15625 8.636719 14.152344 C 8.710938 14.132812 8.78125 14.113281 8.851562 14.085938 C 8.878906 14.078125 8.902344 14.070312 8.929688 14.058594 C 8.960938 14.050781 8.992188 14.035156 9.019531 14.023438 C 9.039062 14.015625 9.054688 14.007812 9.070312 14 C 9.117188 13.984375 9.160156 13.960938 9.203125 13.941406 C 9.222656 13.929688 9.238281 13.921875 9.257812 13.910156 C 9.289062 13.894531 9.316406 13.882812 9.34375 13.863281 L 9.382812 13.839844 C 9.414062 13.816406 9.449219 13.796875 9.480469 13.773438 C 9.664062 13.648438 9.816406 13.492188 9.941406 13.308594 C 10.066406 13.105469 10.148438 12.886719 10.1875 12.652344 L 10.46875 12.710938 C 10.425781 12.984375 10.332031 13.234375 10.183594 13.46875 C 10.039062 13.683594 9.859375 13.867188 9.648438 14.011719 C 9.609375 14.039062 9.574219 14.0625 9.535156 14.085938 L 9.5 14.109375 C 9.460938 14.132812 9.425781 14.152344 9.390625 14.167969 C 9.375 14.175781 9.359375 14.183594 9.34375 14.195312 C 9.292969 14.222656 9.238281 14.246094 9.183594 14.269531 C 9.167969 14.277344 9.152344 14.28125 9.136719 14.289062 C 9.101562 14.304688 9.066406 14.320312 9.027344 14.332031 L 9.023438 14.335938 C 8.996094 14.34375 8.972656 14.351562 8.945312 14.359375 C 8.867188 14.390625 8.785156 14.414062 8.703125 14.433594 C 8.6875 14.4375 8.671875 14.441406 8.65625 14.445312 C 8.617188 14.453125 8.582031 14.464844 8.542969 14.472656 L 8.382812 14.5 C 8.339844 14.507812 8.292969 14.515625 8.246094 14.519531 L 8.21875 14.523438 C 8.203125 14.523438 8.183594 14.527344 8.167969 14.527344 C 8.128906 14.53125 8.09375 14.535156 8.054688 14.539062 C 8.027344 14.539062 8.003906 14.539062 7.980469 14.542969 C 7.898438 14.546875 7.820312 14.550781 7.734375 14.546875 C 7.527344 14.546875 7.320312 14.53125 7.113281 14.5 C 6.707031 14.441406 6.308594 14.34375 5.925781 14.203125 C 5.730469 14.136719 5.535156 14.054688 5.371094 13.980469 C 5.300781 13.953125 5.230469 13.917969 5.164062 13.886719 L 4.972656 13.792969 L 4.839844 13.726562 C 4.492188 13.546875 4.15625 13.347656 3.832031 13.132812 C 3.507812 12.914062 3.195312 12.679688 2.894531 12.433594 C 2.566406 12.152344 2.253906 11.859375 1.957031 11.546875 Z M 1.957031 11.546875 " fill-opacity="1" fill-rule="nonzero"/></g></g></g><g clip-path="url(#742adcedea)"><g clip-path="url(#582c6cf645)"><g clip-path="url(#4d0e624838)"><path fill="#312e81" d="M 2.65625 11.039062 C 2.410156 10.78125 2.179688 10.507812 1.964844 10.222656 C 1.757812 9.929688 1.566406 9.625 1.386719 9.3125 C 1.34375 9.238281 1.300781 9.160156 1.257812 9.085938 C 1.117188 8.84375 0.972656 8.59375 0.820312 8.347656 C 0.617188 8.015625 0.386719 7.707031 0.125 7.417969 C -0.144531 7.125 -0.453125 6.875 -0.800781 6.675781 C -1.140625 6.476562 -1.503906 6.324219 -1.882812 6.214844 C -2.148438 6.132812 -2.421875 6.070312 -2.695312 6.027344 L -3.160156 6.253906 C -3.125 6.257812 -3.085938 6.261719 -3.046875 6.269531 C -2.679688 6.3125 -2.320312 6.386719 -1.964844 6.492188 C -1.609375 6.59375 -1.269531 6.738281 -0.949219 6.925781 C -0.625 7.113281 -0.339844 7.34375 -0.0898438 7.617188 C 0.160156 7.890625 0.382812 8.1875 0.574219 8.503906 C 0.726562 8.742188 0.867188 8.992188 1.007812 9.230469 C 1.050781 9.308594 1.09375 9.382812 1.136719 9.457031 C 1.320312 9.78125 1.515625 10.09375 1.730469 10.394531 C 1.953125 10.691406 2.191406 10.972656 2.445312 11.242188 Z M 2.65625 11.039062 " fill-opacity="1" fill-rule="nonzero"/><path fill="#312e81" d="M 2.859375 10.84375 C 2.621094 10.597656 2.398438 10.332031 2.195312 10.054688 C 1.992188 9.769531 1.804688 9.476562 1.632812 9.167969 C 1.589844 9.09375 1.546875 9.019531 1.5 8.945312 C 1.363281 8.699219 1.214844 8.449219 1.058594 8.195312 C 0.847656 7.851562 0.605469 7.527344 0.332031 7.226562 L 0.226562 7.117188 C 0.199219 7.085938 0.171875 7.0625 0.148438 7.039062 C 0.132812 7.027344 0.121094 7.015625 0.109375 7 L -0.00390625 6.898438 L -0.136719 6.789062 C -0.148438 6.78125 -0.160156 6.769531 -0.175781 6.757812 C -0.203125 6.734375 -0.230469 6.710938 -0.265625 6.6875 L -0.386719 6.601562 C -0.449219 6.554688 -0.515625 6.515625 -0.582031 6.476562 C -0.605469 6.464844 -0.628906 6.449219 -0.660156 6.429688 C -1.019531 6.222656 -1.402344 6.058594 -1.800781 5.945312 C -1.957031 5.898438 -2.113281 5.855469 -2.273438 5.820312 L -2.707031 6.03125 C -2.429688 6.078125 -2.15625 6.140625 -1.882812 6.222656 C -1.507812 6.328125 -1.148438 6.480469 -0.808594 6.679688 C -0.78125 6.695312 -0.757812 6.710938 -0.730469 6.726562 C -0.667969 6.761719 -0.613281 6.796875 -0.554688 6.839844 L -0.433594 6.925781 C -0.40625 6.945312 -0.382812 6.964844 -0.355469 6.984375 C -0.34375 6.996094 -0.328125 7.007812 -0.316406 7.015625 L -0.199219 7.113281 L -0.0898438 7.210938 C -0.078125 7.226562 -0.0625 7.238281 -0.0507812 7.25 C -0.0273438 7.273438 -0.00390625 7.292969 0.015625 7.3125 L 0.117188 7.425781 C 0.378906 7.710938 0.609375 8.019531 0.8125 8.351562 C 0.96875 8.597656 1.113281 8.847656 1.25 9.089844 C 1.292969 9.164062 1.339844 9.242188 1.382812 9.316406 C 1.558594 9.628906 1.75 9.933594 1.960938 10.226562 C 2.171875 10.515625 2.402344 10.789062 2.648438 11.046875 Z M 2.859375 10.84375 " fill-opacity="1" fill-rule="nonzero"/><path fill="#312e81" d="M 2.449219 11.234375 C 2.195312 10.96875 1.957031 10.6875 1.738281 10.390625 C 1.523438 10.085938 1.324219 9.777344 1.144531 9.453125 C 1.101562 9.378906 1.054688 9.300781 1.011719 9.226562 C 0.875 8.984375 0.730469 8.738281 0.582031 8.496094 C 0.386719 8.183594 0.167969 7.886719 -0.0820312 7.609375 C -0.335938 7.335938 -0.621094 7.105469 -0.941406 6.917969 C -1.265625 6.734375 -1.605469 6.585938 -1.960938 6.484375 C -2.320312 6.378906 -2.679688 6.304688 -3.046875 6.261719 C -3.082031 6.257812 -3.117188 6.253906 -3.148438 6.25 L -3.648438 6.492188 C -3.449219 6.507812 -3.261719 6.527344 -3.085938 6.550781 C -2.734375 6.589844 -2.386719 6.664062 -2.046875 6.761719 C -1.710938 6.859375 -1.390625 6.996094 -1.089844 7.167969 C -0.792969 7.34375 -0.527344 7.554688 -0.296875 7.808594 C -0.0585938 8.070312 0.152344 8.351562 0.335938 8.652344 C 0.480469 8.886719 0.625 9.132812 0.761719 9.371094 C 0.804688 9.449219 0.847656 9.523438 0.894531 9.597656 C 1.078125 9.929688 1.285156 10.25 1.503906 10.558594 C 1.730469 10.867188 1.976562 11.160156 2.242188 11.4375 Z M 2.449219 11.234375 " fill-opacity="1" fill-rule="nonzero"/><path fill="#312e81" d="M 2.246094 11.429688 C 1.984375 11.15625 1.738281 10.863281 1.507812 10.554688 C 1.289062 10.246094 1.085938 9.925781 0.898438 9.59375 C 0.855469 9.519531 0.8125 9.445312 0.769531 9.367188 C 0.625 9.117188 0.488281 8.878906 0.34375 8.648438 C 0.15625 8.347656 -0.0546875 8.066406 -0.289062 7.804688 C -0.523438 7.550781 -0.789062 7.335938 -1.085938 7.164062 C -1.386719 6.988281 -1.707031 6.851562 -2.042969 6.753906 C -2.5 6.617188 -3.003906 6.53125 -3.636719 6.488281 L -4.171875 6.75 C -3.308594 6.78125 -2.679688 6.867188 -2.125 7.03125 C -1.8125 7.121094 -1.515625 7.25 -1.234375 7.410156 C -0.960938 7.570312 -0.714844 7.765625 -0.503906 8 C -0.277344 8.25 -0.078125 8.515625 0.0976562 8.804688 C 0.238281 9.03125 0.375 9.265625 0.515625 9.511719 C 0.5625 9.589844 0.605469 9.664062 0.648438 9.742188 C 0.839844 10.082031 1.050781 10.410156 1.277344 10.726562 C 1.511719 11.042969 1.765625 11.347656 2.035156 11.632812 Z M 2.246094 11.429688 " fill-opacity="1" fill-rule="nonzero"/></g></g></g><g clip-path="url(#2e1583932e)"><path fill="#ced0f5" d="M 63.203125 23.046875 C 63.175781 22.417969 62.945312 21.921875 62.523438 21.910156 C 61.792969 21.882812 61.058594 21.609375 60.324219 21.730469 C 59.535156 21.867188 58.789062 21.746094 58.027344 21.539062 C 57.878906 21.5 57.742188 21.445312 57.605469 21.527344 C 57.253906 21.757812 56.886719 21.636719 56.519531 21.59375 C 55.976562 21.539062 55.445312 21.292969 54.902344 21.636719 C 54.820312 21.691406 54.683594 21.648438 54.574219 21.621094 C 53.121094 21.199219 51.640625 21.539062 50.171875 21.5 C 49.820312 21.746094 49.453125 21.445312 49.097656 21.511719 C 48.691406 21.59375 48.296875 21.59375 47.886719 21.554688 C 47.195312 21.5 46.488281 21.335938 45.808594 21.664062 C 45.6875 21.71875 45.523438 21.691406 45.375 21.691406 C 44.75 21.703125 44.125 21.691406 43.5 21.746094 C 43.160156 21.773438 42.847656 21.800781 42.546875 21.566406 C 42.382812 21.429688 42.195312 21.511719 42.019531 21.566406 C 41.351562 21.785156 40.496094 21.949219 39.992188 21.828125 C 39.570312 21.730469 39.191406 21.757812 38.78125 21.839844 C 38.496094 21.894531 38.199219 21.921875 37.898438 21.9375 C 34.53125 22.03125 31.160156 22.140625 27.789062 22.363281 C 26.050781 22.472656 24.308594 22.554688 22.570312 22.648438 C 21.902344 22.691406 21.238281 22.800781 20.574219 22.8125 C 18.125 22.882812 15.679688 22.882812 13.234375 23.058594 C 12.484375 23.113281 11.78125 23.320312 11.03125 23.375 C 9.78125 23.484375 8.519531 23.648438 7.265625 23.785156 C 7.089844 23.8125 6.914062 23.855469 6.847656 24.101562 C 8.410156 24.003906 9.957031 23.867188 11.492188 23.8125 C 12.785156 23.757812 14.078125 23.785156 15.367188 23.785156 C 16.292969 23.785156 17.214844 23.800781 18.140625 23.773438 C 19.703125 23.730469 21.25 23.609375 22.816406 23.609375 C 23.710938 23.609375 24.59375 23.554688 25.476562 23.5 C 26.402344 23.445312 27.328125 23.484375 28.238281 23.429688 C 31.078125 23.265625 33.917969 23.113281 36.773438 23.238281 C 37.273438 23.019531 37.804688 23.332031 38.308594 23.195312 C 39.015625 22.992188 39.695312 23.003906 40.402344 23.167969 C 40.605469 23.222656 40.847656 23.183594 41.066406 23.167969 C 41.691406 23.128906 42.316406 23.074219 42.941406 23.046875 C 44.613281 22.964844 46.269531 22.964844 47.929688 23.210938 C 48.039062 23.222656 48.175781 23.265625 48.253906 23.210938 C 48.878906 22.867188 49.546875 23.195312 50.199219 23.074219 C 50.632812 22.992188 51.164062 23.003906 51.625 23.085938 C 52.453125 23.238281 53.285156 23.195312 54.113281 23.292969 C 54.644531 23.359375 55.132812 23.167969 55.648438 23.183594 C 56.421875 23.210938 57.210938 23.210938 57.984375 23.25 C 59.128906 23.304688 60.28125 23.292969 61.410156 23.511719 C 61.859375 23.609375 62.292969 23.566406 62.742188 23.554688 C 63.164062 23.527344 63.21875 23.445312 63.203125 23.046875 Z M 63.203125 23.046875 " fill-opacity="1" fill-rule="nonzero"/></g></svg>